<mxfile host="app.diagrams.net" agent="Mozilla/5.0 (Windows NT 10.0; Win64; x64) AppleWebKit/537.36 (KHTML, like Gecko) Chrome/129.0.0.0 Safari/537.36" version="24.7.16">
  <diagram name="Page-1" id="5rDFzoBsli2SBigQuK_s">
    <mxGraphModel dx="880" dy="460" grid="1" gridSize="10" guides="1" tooltips="1" connect="1" arrows="1" fold="1" page="1" pageScale="1" pageWidth="1169" pageHeight="827" math="0" shadow="0">
      <root>
        <mxCell id="0" />
        <mxCell id="1" parent="0" />
        <mxCell id="0jkLmbf0lHIO78n2yRSy-8" style="edgeStyle=orthogonalEdgeStyle;rounded=0;orthogonalLoop=1;jettySize=auto;html=1;exitX=0.5;exitY=1;exitDx=0;exitDy=0;entryX=0.5;entryY=0;entryDx=0;entryDy=0;" edge="1" parent="1" source="0jkLmbf0lHIO78n2yRSy-1" target="0jkLmbf0lHIO78n2yRSy-3">
          <mxGeometry relative="1" as="geometry" />
        </mxCell>
        <mxCell id="0jkLmbf0lHIO78n2yRSy-16" style="edgeStyle=orthogonalEdgeStyle;rounded=0;orthogonalLoop=1;jettySize=auto;html=1;exitX=1;exitY=0.5;exitDx=0;exitDy=0;entryX=0.5;entryY=0;entryDx=0;entryDy=0;" edge="1" parent="1" source="0jkLmbf0lHIO78n2yRSy-1" target="0jkLmbf0lHIO78n2yRSy-12">
          <mxGeometry relative="1" as="geometry">
            <mxPoint x="450" y="120" as="targetPoint" />
          </mxGeometry>
        </mxCell>
        <mxCell id="0jkLmbf0lHIO78n2yRSy-40" style="edgeStyle=orthogonalEdgeStyle;rounded=0;orthogonalLoop=1;jettySize=auto;html=1;exitX=1;exitY=0;exitDx=0;exitDy=0;entryX=0.583;entryY=0;entryDx=0;entryDy=0;entryPerimeter=0;" edge="1" parent="1" source="0jkLmbf0lHIO78n2yRSy-1" target="0jkLmbf0lHIO78n2yRSy-14">
          <mxGeometry relative="1" as="geometry">
            <mxPoint x="840" y="70" as="targetPoint" />
            <Array as="points">
              <mxPoint x="212" y="90" />
              <mxPoint x="840" y="90" />
            </Array>
          </mxGeometry>
        </mxCell>
        <mxCell id="0jkLmbf0lHIO78n2yRSy-1" value="" style="ellipse;whiteSpace=wrap;html=1;" vertex="1" parent="1">
          <mxGeometry x="110" y="80" width="120" height="80" as="geometry" />
        </mxCell>
        <mxCell id="0jkLmbf0lHIO78n2yRSy-2" value="START" style="text;html=1;align=center;verticalAlign=middle;whiteSpace=wrap;rounded=0;" vertex="1" parent="1">
          <mxGeometry x="140" y="105" width="60" height="30" as="geometry" />
        </mxCell>
        <mxCell id="0jkLmbf0lHIO78n2yRSy-47" style="edgeStyle=orthogonalEdgeStyle;rounded=0;orthogonalLoop=1;jettySize=auto;html=1;exitX=0.5;exitY=1;exitDx=0;exitDy=0;entryX=0;entryY=0.5;entryDx=0;entryDy=0;" edge="1" parent="1" source="0jkLmbf0lHIO78n2yRSy-3" target="0jkLmbf0lHIO78n2yRSy-20">
          <mxGeometry relative="1" as="geometry">
            <mxPoint x="170" y="390" as="targetPoint" />
          </mxGeometry>
        </mxCell>
        <mxCell id="0jkLmbf0lHIO78n2yRSy-3" value="" style="rounded=0;whiteSpace=wrap;html=1;" vertex="1" parent="1">
          <mxGeometry x="110" y="200" width="120" height="60" as="geometry" />
        </mxCell>
        <mxCell id="0jkLmbf0lHIO78n2yRSy-4" value="Log in student in system" style="text;html=1;align=center;verticalAlign=middle;whiteSpace=wrap;rounded=0;" vertex="1" parent="1">
          <mxGeometry x="140" y="215" width="60" height="30" as="geometry" />
        </mxCell>
        <mxCell id="0jkLmbf0lHIO78n2yRSy-5" value="Student" style="text;html=1;align=center;verticalAlign=middle;whiteSpace=wrap;rounded=0;" vertex="1" parent="1">
          <mxGeometry x="130" y="20" width="60" height="30" as="geometry" />
        </mxCell>
        <mxCell id="0jkLmbf0lHIO78n2yRSy-6" value="Login" style="text;html=1;align=center;verticalAlign=middle;whiteSpace=wrap;rounded=0;" vertex="1" parent="1">
          <mxGeometry x="10" y="215" width="60" height="30" as="geometry" />
        </mxCell>
        <mxCell id="0jkLmbf0lHIO78n2yRSy-9" value="Regular Adviser" style="text;html=1;align=center;verticalAlign=middle;whiteSpace=wrap;rounded=0;" vertex="1" parent="1">
          <mxGeometry x="432.5" y="20" width="105" height="30" as="geometry" />
        </mxCell>
        <mxCell id="0jkLmbf0lHIO78n2yRSy-10" value="Campus Registrar" style="text;html=1;align=center;verticalAlign=middle;whiteSpace=wrap;rounded=0;" vertex="1" parent="1">
          <mxGeometry x="765" y="20" width="130" height="30" as="geometry" />
        </mxCell>
        <mxCell id="0jkLmbf0lHIO78n2yRSy-48" style="edgeStyle=orthogonalEdgeStyle;rounded=0;orthogonalLoop=1;jettySize=auto;html=1;exitX=0.5;exitY=1;exitDx=0;exitDy=0;entryX=0.5;entryY=0;entryDx=0;entryDy=0;" edge="1" parent="1" source="0jkLmbf0lHIO78n2yRSy-12" target="0jkLmbf0lHIO78n2yRSy-20">
          <mxGeometry relative="1" as="geometry" />
        </mxCell>
        <mxCell id="0jkLmbf0lHIO78n2yRSy-12" value="" style="rounded=0;whiteSpace=wrap;html=1;" vertex="1" parent="1">
          <mxGeometry x="420" y="200" width="120" height="60" as="geometry" />
        </mxCell>
        <mxCell id="0jkLmbf0lHIO78n2yRSy-13" value="Log in student in system" style="text;html=1;align=center;verticalAlign=middle;whiteSpace=wrap;rounded=0;" vertex="1" parent="1">
          <mxGeometry x="450" y="215" width="60" height="30" as="geometry" />
        </mxCell>
        <mxCell id="0jkLmbf0lHIO78n2yRSy-49" style="edgeStyle=orthogonalEdgeStyle;rounded=0;orthogonalLoop=1;jettySize=auto;html=1;exitX=0.5;exitY=1;exitDx=0;exitDy=0;entryX=1;entryY=0;entryDx=0;entryDy=0;" edge="1" parent="1" source="0jkLmbf0lHIO78n2yRSy-14" target="0jkLmbf0lHIO78n2yRSy-20">
          <mxGeometry relative="1" as="geometry" />
        </mxCell>
        <mxCell id="0jkLmbf0lHIO78n2yRSy-14" value="" style="rounded=0;whiteSpace=wrap;html=1;" vertex="1" parent="1">
          <mxGeometry x="770" y="200" width="120" height="60" as="geometry" />
        </mxCell>
        <mxCell id="0jkLmbf0lHIO78n2yRSy-15" value="Log in student in system" style="text;html=1;align=center;verticalAlign=middle;whiteSpace=wrap;rounded=0;" vertex="1" parent="1">
          <mxGeometry x="800" y="215" width="60" height="30" as="geometry" />
        </mxCell>
        <mxCell id="0jkLmbf0lHIO78n2yRSy-19" value="Validation" style="text;html=1;align=center;verticalAlign=middle;whiteSpace=wrap;rounded=0;" vertex="1" parent="1">
          <mxGeometry x="20" y="335" width="30" height="30" as="geometry" />
        </mxCell>
        <mxCell id="0jkLmbf0lHIO78n2yRSy-51" style="edgeStyle=orthogonalEdgeStyle;rounded=0;orthogonalLoop=1;jettySize=auto;html=1;exitX=0.5;exitY=1;exitDx=0;exitDy=0;entryX=0.5;entryY=0;entryDx=0;entryDy=0;" edge="1" parent="1" source="0jkLmbf0lHIO78n2yRSy-20" target="0jkLmbf0lHIO78n2yRSy-24">
          <mxGeometry relative="1" as="geometry" />
        </mxCell>
        <mxCell id="0jkLmbf0lHIO78n2yRSy-54" value="Yes" style="edgeLabel;html=1;align=center;verticalAlign=middle;resizable=0;points=[];" vertex="1" connectable="0" parent="0jkLmbf0lHIO78n2yRSy-51">
          <mxGeometry x="-0.2" relative="1" as="geometry">
            <mxPoint as="offset" />
          </mxGeometry>
        </mxCell>
        <mxCell id="0jkLmbf0lHIO78n2yRSy-52" style="edgeStyle=orthogonalEdgeStyle;rounded=0;orthogonalLoop=1;jettySize=auto;html=1;exitX=1;exitY=0.5;exitDx=0;exitDy=0;entryX=0;entryY=0.5;entryDx=0;entryDy=0;" edge="1" parent="1" source="0jkLmbf0lHIO78n2yRSy-20" target="0jkLmbf0lHIO78n2yRSy-23">
          <mxGeometry relative="1" as="geometry" />
        </mxCell>
        <mxCell id="0jkLmbf0lHIO78n2yRSy-53" value="No" style="edgeLabel;html=1;align=center;verticalAlign=middle;resizable=0;points=[];" vertex="1" connectable="0" parent="0jkLmbf0lHIO78n2yRSy-52">
          <mxGeometry x="-0.1394" y="-1" relative="1" as="geometry">
            <mxPoint x="1" as="offset" />
          </mxGeometry>
        </mxCell>
        <mxCell id="0jkLmbf0lHIO78n2yRSy-20" value="" style="rhombus;whiteSpace=wrap;html=1;" vertex="1" parent="1">
          <mxGeometry x="432.5" y="300" width="95" height="80" as="geometry" />
        </mxCell>
        <mxCell id="0jkLmbf0lHIO78n2yRSy-21" value="Is valid?" style="text;html=1;align=center;verticalAlign=middle;whiteSpace=wrap;rounded=0;" vertex="1" parent="1">
          <mxGeometry x="450" y="325" width="60" height="30" as="geometry" />
        </mxCell>
        <mxCell id="0jkLmbf0lHIO78n2yRSy-22" value="" style="rounded=0;whiteSpace=wrap;html=1;" vertex="1" parent="1">
          <mxGeometry x="610" y="315" width="110" height="50" as="geometry" />
        </mxCell>
        <mxCell id="0jkLmbf0lHIO78n2yRSy-23" value="Show error message:&lt;div style=&quot;font-size: 10px;&quot;&gt;&quot;Incorrect username/password&quot;&lt;/div&gt;" style="text;html=1;align=center;verticalAlign=middle;whiteSpace=wrap;rounded=0;fontSize=10;" vertex="1" parent="1">
          <mxGeometry x="610" y="325" width="110" height="30" as="geometry" />
        </mxCell>
        <mxCell id="0jkLmbf0lHIO78n2yRSy-67" style="edgeStyle=orthogonalEdgeStyle;rounded=0;orthogonalLoop=1;jettySize=auto;html=1;exitX=0.5;exitY=1;exitDx=0;exitDy=0;entryX=0.5;entryY=0;entryDx=0;entryDy=0;" edge="1" parent="1" source="0jkLmbf0lHIO78n2yRSy-24" target="0jkLmbf0lHIO78n2yRSy-58">
          <mxGeometry relative="1" as="geometry" />
        </mxCell>
        <mxCell id="0jkLmbf0lHIO78n2yRSy-84" style="edgeStyle=orthogonalEdgeStyle;rounded=0;orthogonalLoop=1;jettySize=auto;html=1;exitX=1;exitY=0.5;exitDx=0;exitDy=0;entryX=0.5;entryY=0;entryDx=0;entryDy=0;" edge="1" parent="1" source="0jkLmbf0lHIO78n2yRSy-24" target="0jkLmbf0lHIO78n2yRSy-60">
          <mxGeometry relative="1" as="geometry" />
        </mxCell>
        <mxCell id="0jkLmbf0lHIO78n2yRSy-24" value="" style="rounded=0;whiteSpace=wrap;html=1;" vertex="1" parent="1">
          <mxGeometry x="420" y="440" width="120" height="60" as="geometry" />
        </mxCell>
        <mxCell id="0jkLmbf0lHIO78n2yRSy-57" style="edgeStyle=orthogonalEdgeStyle;rounded=0;orthogonalLoop=1;jettySize=auto;html=1;entryX=0.5;entryY=0;entryDx=0;entryDy=0;" edge="1" parent="1" target="0jkLmbf0lHIO78n2yRSy-55">
          <mxGeometry relative="1" as="geometry">
            <mxPoint x="420" y="470" as="sourcePoint" />
          </mxGeometry>
        </mxCell>
        <mxCell id="0jkLmbf0lHIO78n2yRSy-25" value="View Dashboard" style="text;html=1;align=center;verticalAlign=middle;whiteSpace=wrap;rounded=0;" vertex="1" parent="1">
          <mxGeometry x="427.5" y="450" width="110" height="40" as="geometry" />
        </mxCell>
        <mxCell id="0jkLmbf0lHIO78n2yRSy-50" value="Dashboard" style="text;html=1;align=center;verticalAlign=middle;whiteSpace=wrap;rounded=0;" vertex="1" parent="1">
          <mxGeometry x="10" y="455" width="60" height="30" as="geometry" />
        </mxCell>
        <mxCell id="0jkLmbf0lHIO78n2yRSy-78" style="edgeStyle=orthogonalEdgeStyle;rounded=0;orthogonalLoop=1;jettySize=auto;html=1;exitX=0.5;exitY=1;exitDx=0;exitDy=0;entryX=0.5;entryY=0;entryDx=0;entryDy=0;" edge="1" parent="1" source="0jkLmbf0lHIO78n2yRSy-55" target="0jkLmbf0lHIO78n2yRSy-76">
          <mxGeometry relative="1" as="geometry" />
        </mxCell>
        <mxCell id="0jkLmbf0lHIO78n2yRSy-55" value="" style="rounded=0;whiteSpace=wrap;html=1;" vertex="1" parent="1">
          <mxGeometry x="110" y="550" width="120" height="60" as="geometry" />
        </mxCell>
        <mxCell id="0jkLmbf0lHIO78n2yRSy-56" value="View student pre-registration form" style="text;html=1;align=center;verticalAlign=middle;whiteSpace=wrap;rounded=0;" vertex="1" parent="1">
          <mxGeometry x="100" y="560" width="140" height="40" as="geometry" />
        </mxCell>
        <mxCell id="0jkLmbf0lHIO78n2yRSy-87" style="edgeStyle=orthogonalEdgeStyle;rounded=0;orthogonalLoop=1;jettySize=auto;html=1;exitX=0.5;exitY=1;exitDx=0;exitDy=0;entryX=0.5;entryY=0;entryDx=0;entryDy=0;" edge="1" parent="1" source="0jkLmbf0lHIO78n2yRSy-58" target="0jkLmbf0lHIO78n2yRSy-74">
          <mxGeometry relative="1" as="geometry" />
        </mxCell>
        <mxCell id="0jkLmbf0lHIO78n2yRSy-58" value="" style="rounded=0;whiteSpace=wrap;html=1;" vertex="1" parent="1">
          <mxGeometry x="420" y="550" width="120" height="60" as="geometry" />
        </mxCell>
        <mxCell id="0jkLmbf0lHIO78n2yRSy-59" value="View student pre-registration form" style="text;html=1;align=center;verticalAlign=middle;whiteSpace=wrap;rounded=0;" vertex="1" parent="1">
          <mxGeometry x="432.5" y="570" width="95" height="20" as="geometry" />
        </mxCell>
        <mxCell id="0jkLmbf0lHIO78n2yRSy-90" style="edgeStyle=orthogonalEdgeStyle;rounded=0;orthogonalLoop=1;jettySize=auto;html=1;exitX=0.5;exitY=1;exitDx=0;exitDy=0;entryX=0.5;entryY=0;entryDx=0;entryDy=0;" edge="1" parent="1" source="0jkLmbf0lHIO78n2yRSy-60" target="0jkLmbf0lHIO78n2yRSy-88">
          <mxGeometry relative="1" as="geometry" />
        </mxCell>
        <mxCell id="0jkLmbf0lHIO78n2yRSy-60" value="" style="rounded=0;whiteSpace=wrap;html=1;" vertex="1" parent="1">
          <mxGeometry x="775" y="550" width="120" height="60" as="geometry" />
        </mxCell>
        <mxCell id="0jkLmbf0lHIO78n2yRSy-61" value="View student pre-registration form" style="text;html=1;align=center;verticalAlign=middle;whiteSpace=wrap;rounded=0;" vertex="1" parent="1">
          <mxGeometry x="782.5" y="565" width="105" height="30" as="geometry" />
        </mxCell>
        <mxCell id="0jkLmbf0lHIO78n2yRSy-70" value="View&lt;div&gt;Form&lt;/div&gt;" style="text;html=1;align=center;verticalAlign=middle;whiteSpace=wrap;rounded=0;" vertex="1" parent="1">
          <mxGeometry x="10" y="560" width="60" height="30" as="geometry" />
        </mxCell>
        <mxCell id="0jkLmbf0lHIO78n2yRSy-73" value="Review" style="text;html=1;align=center;verticalAlign=middle;whiteSpace=wrap;rounded=0;" vertex="1" parent="1">
          <mxGeometry x="10" y="655" width="60" height="30" as="geometry" />
        </mxCell>
        <mxCell id="0jkLmbf0lHIO78n2yRSy-118" style="edgeStyle=orthogonalEdgeStyle;rounded=0;orthogonalLoop=1;jettySize=auto;html=1;exitX=0.5;exitY=1;exitDx=0;exitDy=0;entryX=0.5;entryY=0;entryDx=0;entryDy=0;" edge="1" parent="1" source="0jkLmbf0lHIO78n2yRSy-74" target="0jkLmbf0lHIO78n2yRSy-112">
          <mxGeometry relative="1" as="geometry" />
        </mxCell>
        <mxCell id="0jkLmbf0lHIO78n2yRSy-74" value="" style="rounded=0;whiteSpace=wrap;html=1;" vertex="1" parent="1">
          <mxGeometry x="420" y="640" width="120" height="60" as="geometry" />
        </mxCell>
        <mxCell id="0jkLmbf0lHIO78n2yRSy-75" value="Review each pre-registration form" style="text;html=1;align=center;verticalAlign=middle;whiteSpace=wrap;rounded=0;" vertex="1" parent="1">
          <mxGeometry x="420" y="655" width="120" height="30" as="geometry" />
        </mxCell>
        <mxCell id="0jkLmbf0lHIO78n2yRSy-96" style="edgeStyle=orthogonalEdgeStyle;rounded=0;orthogonalLoop=1;jettySize=auto;html=1;exitX=0.5;exitY=1;exitDx=0;exitDy=0;entryX=0.5;entryY=0;entryDx=0;entryDy=0;" edge="1" parent="1" source="0jkLmbf0lHIO78n2yRSy-76" target="0jkLmbf0lHIO78n2yRSy-91">
          <mxGeometry relative="1" as="geometry" />
        </mxCell>
        <mxCell id="0jkLmbf0lHIO78n2yRSy-76" value="" style="rounded=0;whiteSpace=wrap;html=1;" vertex="1" parent="1">
          <mxGeometry x="110" y="640" width="120" height="60" as="geometry" />
        </mxCell>
        <mxCell id="0jkLmbf0lHIO78n2yRSy-77" value="View available subjects for upcoming semester" style="text;html=1;align=center;verticalAlign=middle;whiteSpace=wrap;rounded=0;" vertex="1" parent="1">
          <mxGeometry x="110" y="655" width="120" height="30" as="geometry" />
        </mxCell>
        <mxCell id="0jkLmbf0lHIO78n2yRSy-137" style="edgeStyle=orthogonalEdgeStyle;rounded=0;orthogonalLoop=1;jettySize=auto;html=1;exitX=0.5;exitY=1;exitDx=0;exitDy=0;entryX=0.5;entryY=0;entryDx=0;entryDy=0;" edge="1" parent="1" source="0jkLmbf0lHIO78n2yRSy-88" target="0jkLmbf0lHIO78n2yRSy-130">
          <mxGeometry relative="1" as="geometry" />
        </mxCell>
        <mxCell id="0jkLmbf0lHIO78n2yRSy-88" value="" style="rounded=0;whiteSpace=wrap;html=1;" vertex="1" parent="1">
          <mxGeometry x="775" y="640" width="120" height="60" as="geometry" />
        </mxCell>
        <mxCell id="0jkLmbf0lHIO78n2yRSy-89" value="Review each pre-registration form" style="text;html=1;align=center;verticalAlign=middle;whiteSpace=wrap;rounded=0;" vertex="1" parent="1">
          <mxGeometry x="775" y="655" width="120" height="30" as="geometry" />
        </mxCell>
        <mxCell id="0jkLmbf0lHIO78n2yRSy-97" style="edgeStyle=orthogonalEdgeStyle;rounded=0;orthogonalLoop=1;jettySize=auto;html=1;exitX=1;exitY=0.5;exitDx=0;exitDy=0;entryX=0;entryY=0.5;entryDx=0;entryDy=0;" edge="1" parent="1" source="0jkLmbf0lHIO78n2yRSy-91" target="0jkLmbf0lHIO78n2yRSy-94">
          <mxGeometry relative="1" as="geometry" />
        </mxCell>
        <mxCell id="0jkLmbf0lHIO78n2yRSy-99" value="No" style="edgeLabel;html=1;align=center;verticalAlign=middle;resizable=0;points=[];" vertex="1" connectable="0" parent="0jkLmbf0lHIO78n2yRSy-97">
          <mxGeometry x="-0.3176" y="-1" relative="1" as="geometry">
            <mxPoint as="offset" />
          </mxGeometry>
        </mxCell>
        <mxCell id="0jkLmbf0lHIO78n2yRSy-102" style="edgeStyle=orthogonalEdgeStyle;rounded=0;orthogonalLoop=1;jettySize=auto;html=1;exitX=0.5;exitY=1;exitDx=0;exitDy=0;entryX=0.5;entryY=0;entryDx=0;entryDy=0;" edge="1" parent="1" source="0jkLmbf0lHIO78n2yRSy-91" target="0jkLmbf0lHIO78n2yRSy-100">
          <mxGeometry relative="1" as="geometry" />
        </mxCell>
        <mxCell id="0jkLmbf0lHIO78n2yRSy-103" value="Yes" style="edgeLabel;html=1;align=center;verticalAlign=middle;resizable=0;points=[];" vertex="1" connectable="0" parent="0jkLmbf0lHIO78n2yRSy-102">
          <mxGeometry x="-0.15" relative="1" as="geometry">
            <mxPoint as="offset" />
          </mxGeometry>
        </mxCell>
        <mxCell id="0jkLmbf0lHIO78n2yRSy-91" value="" style="rhombus;whiteSpace=wrap;html=1;" vertex="1" parent="1">
          <mxGeometry x="122.5" y="740" width="95" height="80" as="geometry" />
        </mxCell>
        <mxCell id="0jkLmbf0lHIO78n2yRSy-93" value="Subject passed?" style="text;html=1;align=center;verticalAlign=middle;whiteSpace=wrap;rounded=0;" vertex="1" parent="1">
          <mxGeometry x="150" y="772.5" width="40" height="15" as="geometry" />
        </mxCell>
        <mxCell id="0jkLmbf0lHIO78n2yRSy-94" value="" style="rounded=0;whiteSpace=wrap;html=1;" vertex="1" parent="1">
          <mxGeometry x="260" y="750" width="110" height="60" as="geometry" />
        </mxCell>
        <mxCell id="0jkLmbf0lHIO78n2yRSy-95" value="Subject failed." style="text;html=1;align=center;verticalAlign=middle;whiteSpace=wrap;rounded=0;" vertex="1" parent="1">
          <mxGeometry x="295" y="772.5" width="40" height="15" as="geometry" />
        </mxCell>
        <mxCell id="0jkLmbf0lHIO78n2yRSy-105" style="edgeStyle=orthogonalEdgeStyle;rounded=0;orthogonalLoop=1;jettySize=auto;html=1;exitX=0.5;exitY=1;exitDx=0;exitDy=0;entryX=0.5;entryY=0;entryDx=0;entryDy=0;" edge="1" parent="1" source="0jkLmbf0lHIO78n2yRSy-100" target="0jkLmbf0lHIO78n2yRSy-104">
          <mxGeometry relative="1" as="geometry" />
        </mxCell>
        <mxCell id="0jkLmbf0lHIO78n2yRSy-100" value="" style="rounded=0;whiteSpace=wrap;html=1;" vertex="1" parent="1">
          <mxGeometry x="110" y="860" width="120" height="60" as="geometry" />
        </mxCell>
        <mxCell id="0jkLmbf0lHIO78n2yRSy-101" value="Subject passed." style="text;html=1;align=center;verticalAlign=middle;whiteSpace=wrap;rounded=0;" vertex="1" parent="1">
          <mxGeometry x="150" y="882.5" width="40" height="15" as="geometry" />
        </mxCell>
        <mxCell id="0jkLmbf0lHIO78n2yRSy-107" style="edgeStyle=orthogonalEdgeStyle;rounded=0;orthogonalLoop=1;jettySize=auto;html=1;exitX=1;exitY=0.5;exitDx=0;exitDy=0;entryX=0;entryY=0.5;entryDx=0;entryDy=0;" edge="1" parent="1" source="0jkLmbf0lHIO78n2yRSy-104" target="0jkLmbf0lHIO78n2yRSy-58">
          <mxGeometry relative="1" as="geometry">
            <mxPoint x="390" y="580" as="targetPoint" />
            <Array as="points">
              <mxPoint x="390" y="1000" />
              <mxPoint x="390" y="580" />
            </Array>
          </mxGeometry>
        </mxCell>
        <mxCell id="0jkLmbf0lHIO78n2yRSy-104" value="" style="rounded=0;whiteSpace=wrap;html=1;" vertex="1" parent="1">
          <mxGeometry x="110" y="980" width="120" height="60" as="geometry" />
        </mxCell>
        <mxCell id="0jkLmbf0lHIO78n2yRSy-106" value="Submit pre-registration form" style="text;html=1;align=center;verticalAlign=middle;whiteSpace=wrap;rounded=0;" vertex="1" parent="1">
          <mxGeometry x="120" y="1002.5" width="100" height="15" as="geometry" />
        </mxCell>
        <mxCell id="0jkLmbf0lHIO78n2yRSy-108" style="edgeStyle=orthogonalEdgeStyle;rounded=0;orthogonalLoop=1;jettySize=auto;html=1;exitX=1;exitY=0.5;exitDx=0;exitDy=0;entryX=0;entryY=0.5;entryDx=0;entryDy=0;" edge="1" parent="1" source="0jkLmbf0lHIO78n2yRSy-112" target="0jkLmbf0lHIO78n2yRSy-114">
          <mxGeometry relative="1" as="geometry" />
        </mxCell>
        <mxCell id="0jkLmbf0lHIO78n2yRSy-109" value="No" style="edgeLabel;html=1;align=center;verticalAlign=middle;resizable=0;points=[];" vertex="1" connectable="0" parent="0jkLmbf0lHIO78n2yRSy-108">
          <mxGeometry x="-0.3176" y="-1" relative="1" as="geometry">
            <mxPoint as="offset" />
          </mxGeometry>
        </mxCell>
        <mxCell id="0jkLmbf0lHIO78n2yRSy-110" style="edgeStyle=orthogonalEdgeStyle;rounded=0;orthogonalLoop=1;jettySize=auto;html=1;exitX=0.5;exitY=1;exitDx=0;exitDy=0;entryX=0.5;entryY=0;entryDx=0;entryDy=0;" edge="1" parent="1" source="0jkLmbf0lHIO78n2yRSy-112" target="0jkLmbf0lHIO78n2yRSy-121">
          <mxGeometry relative="1" as="geometry">
            <mxPoint x="480" y="860" as="targetPoint" />
          </mxGeometry>
        </mxCell>
        <mxCell id="0jkLmbf0lHIO78n2yRSy-111" value="Yes" style="edgeLabel;html=1;align=center;verticalAlign=middle;resizable=0;points=[];" vertex="1" connectable="0" parent="0jkLmbf0lHIO78n2yRSy-110">
          <mxGeometry x="-0.15" relative="1" as="geometry">
            <mxPoint as="offset" />
          </mxGeometry>
        </mxCell>
        <mxCell id="0jkLmbf0lHIO78n2yRSy-112" value="" style="rhombus;whiteSpace=wrap;html=1;" vertex="1" parent="1">
          <mxGeometry x="432.5" y="740" width="95" height="80" as="geometry" />
        </mxCell>
        <mxCell id="0jkLmbf0lHIO78n2yRSy-113" value="all subjects suitable?" style="text;html=1;align=center;verticalAlign=middle;whiteSpace=wrap;rounded=0;" vertex="1" parent="1">
          <mxGeometry x="460" y="772.5" width="40" height="15" as="geometry" />
        </mxCell>
        <mxCell id="0jkLmbf0lHIO78n2yRSy-120" style="edgeStyle=orthogonalEdgeStyle;rounded=0;orthogonalLoop=1;jettySize=auto;html=1;exitX=0.5;exitY=0;exitDx=0;exitDy=0;" edge="1" parent="1" source="0jkLmbf0lHIO78n2yRSy-114">
          <mxGeometry relative="1" as="geometry">
            <mxPoint x="480" y="720" as="targetPoint" />
            <Array as="points">
              <mxPoint x="625" y="720" />
            </Array>
          </mxGeometry>
        </mxCell>
        <mxCell id="0jkLmbf0lHIO78n2yRSy-114" value="" style="rounded=0;whiteSpace=wrap;html=1;" vertex="1" parent="1">
          <mxGeometry x="570" y="750" width="110" height="60" as="geometry" />
        </mxCell>
        <mxCell id="0jkLmbf0lHIO78n2yRSy-115" value="Remove or add subjects" style="text;html=1;align=center;verticalAlign=middle;whiteSpace=wrap;rounded=0;" vertex="1" parent="1">
          <mxGeometry x="605" y="772.5" width="40" height="15" as="geometry" />
        </mxCell>
        <mxCell id="0jkLmbf0lHIO78n2yRSy-125" style="edgeStyle=orthogonalEdgeStyle;rounded=0;orthogonalLoop=1;jettySize=auto;html=1;exitX=1;exitY=0.5;exitDx=0;exitDy=0;entryX=0;entryY=0.5;entryDx=0;entryDy=0;" edge="1" parent="1" source="0jkLmbf0lHIO78n2yRSy-121" target="0jkLmbf0lHIO78n2yRSy-60">
          <mxGeometry relative="1" as="geometry">
            <mxPoint x="710" y="580" as="targetPoint" />
            <Array as="points">
              <mxPoint x="720" y="990" />
              <mxPoint x="720" y="580" />
            </Array>
          </mxGeometry>
        </mxCell>
        <mxCell id="0jkLmbf0lHIO78n2yRSy-121" value="" style="rounded=0;whiteSpace=wrap;html=1;" vertex="1" parent="1">
          <mxGeometry x="420" y="970" width="120" height="60" as="geometry" />
        </mxCell>
        <mxCell id="0jkLmbf0lHIO78n2yRSy-122" value="Approve pre-registration form" style="text;html=1;align=center;verticalAlign=middle;whiteSpace=wrap;rounded=0;" vertex="1" parent="1">
          <mxGeometry x="430" y="992.5" width="100" height="15" as="geometry" />
        </mxCell>
        <mxCell id="0jkLmbf0lHIO78n2yRSy-126" style="edgeStyle=orthogonalEdgeStyle;rounded=0;orthogonalLoop=1;jettySize=auto;html=1;exitX=1;exitY=0.5;exitDx=0;exitDy=0;entryX=0;entryY=0.5;entryDx=0;entryDy=0;" edge="1" parent="1" source="0jkLmbf0lHIO78n2yRSy-130" target="0jkLmbf0lHIO78n2yRSy-133">
          <mxGeometry relative="1" as="geometry" />
        </mxCell>
        <mxCell id="0jkLmbf0lHIO78n2yRSy-127" value="No" style="edgeLabel;html=1;align=center;verticalAlign=middle;resizable=0;points=[];" vertex="1" connectable="0" parent="0jkLmbf0lHIO78n2yRSy-126">
          <mxGeometry x="-0.3176" y="-1" relative="1" as="geometry">
            <mxPoint as="offset" />
          </mxGeometry>
        </mxCell>
        <mxCell id="0jkLmbf0lHIO78n2yRSy-128" style="edgeStyle=orthogonalEdgeStyle;rounded=0;orthogonalLoop=1;jettySize=auto;html=1;exitX=0.5;exitY=1;exitDx=0;exitDy=0;entryX=0.5;entryY=0;entryDx=0;entryDy=0;" edge="1" parent="1" source="0jkLmbf0lHIO78n2yRSy-130" target="0jkLmbf0lHIO78n2yRSy-135">
          <mxGeometry relative="1" as="geometry" />
        </mxCell>
        <mxCell id="0jkLmbf0lHIO78n2yRSy-129" value="Yes" style="edgeLabel;html=1;align=center;verticalAlign=middle;resizable=0;points=[];" vertex="1" connectable="0" parent="0jkLmbf0lHIO78n2yRSy-128">
          <mxGeometry x="-0.15" relative="1" as="geometry">
            <mxPoint as="offset" />
          </mxGeometry>
        </mxCell>
        <mxCell id="0jkLmbf0lHIO78n2yRSy-130" value="" style="rhombus;whiteSpace=wrap;html=1;" vertex="1" parent="1">
          <mxGeometry x="787.5" y="740" width="95" height="80" as="geometry" />
        </mxCell>
        <mxCell id="0jkLmbf0lHIO78n2yRSy-131" value="pre-requisite passed?" style="text;html=1;align=center;verticalAlign=middle;whiteSpace=wrap;rounded=0;" vertex="1" parent="1">
          <mxGeometry x="815" y="772.5" width="40" height="15" as="geometry" />
        </mxCell>
        <mxCell id="0jkLmbf0lHIO78n2yRSy-133" value="" style="rounded=0;whiteSpace=wrap;html=1;" vertex="1" parent="1">
          <mxGeometry x="925" y="750" width="110" height="60" as="geometry" />
        </mxCell>
        <mxCell id="0jkLmbf0lHIO78n2yRSy-134" value="Uncheck subject checkmark" style="text;html=1;align=center;verticalAlign=middle;whiteSpace=wrap;rounded=0;" vertex="1" parent="1">
          <mxGeometry x="960" y="772.5" width="40" height="15" as="geometry" />
        </mxCell>
        <mxCell id="0jkLmbf0lHIO78n2yRSy-140" value="" style="edgeStyle=orthogonalEdgeStyle;rounded=0;orthogonalLoop=1;jettySize=auto;html=1;" edge="1" parent="1" source="0jkLmbf0lHIO78n2yRSy-135" target="0jkLmbf0lHIO78n2yRSy-139">
          <mxGeometry relative="1" as="geometry" />
        </mxCell>
        <mxCell id="0jkLmbf0lHIO78n2yRSy-135" value="" style="rounded=0;whiteSpace=wrap;html=1;" vertex="1" parent="1">
          <mxGeometry x="775" y="860" width="120" height="60" as="geometry" />
        </mxCell>
        <mxCell id="0jkLmbf0lHIO78n2yRSy-136" value="Place subject checkmark" style="text;html=1;align=center;verticalAlign=middle;whiteSpace=wrap;rounded=0;" vertex="1" parent="1">
          <mxGeometry x="815" y="882.5" width="40" height="15" as="geometry" />
        </mxCell>
        <mxCell id="0jkLmbf0lHIO78n2yRSy-138" value="Condition Process" style="text;html=1;align=center;verticalAlign=middle;whiteSpace=wrap;rounded=0;" vertex="1" parent="1">
          <mxGeometry x="5" y="765" width="60" height="30" as="geometry" />
        </mxCell>
        <mxCell id="0jkLmbf0lHIO78n2yRSy-147" style="edgeStyle=orthogonalEdgeStyle;rounded=0;orthogonalLoop=1;jettySize=auto;html=1;exitX=1;exitY=0.5;exitDx=0;exitDy=0;entryX=0;entryY=0.5;entryDx=0;entryDy=0;" edge="1" parent="1" source="0jkLmbf0lHIO78n2yRSy-139" target="0jkLmbf0lHIO78n2yRSy-144">
          <mxGeometry relative="1" as="geometry" />
        </mxCell>
        <mxCell id="0jkLmbf0lHIO78n2yRSy-149" value="Yes" style="edgeLabel;html=1;align=center;verticalAlign=middle;resizable=0;points=[];" vertex="1" connectable="0" parent="0jkLmbf0lHIO78n2yRSy-147">
          <mxGeometry x="-0.2" y="-1" relative="1" as="geometry">
            <mxPoint as="offset" />
          </mxGeometry>
        </mxCell>
        <mxCell id="0jkLmbf0lHIO78n2yRSy-148" style="edgeStyle=orthogonalEdgeStyle;rounded=0;orthogonalLoop=1;jettySize=auto;html=1;exitX=0.5;exitY=1;exitDx=0;exitDy=0;entryX=0.5;entryY=0;entryDx=0;entryDy=0;" edge="1" parent="1" source="0jkLmbf0lHIO78n2yRSy-139" target="0jkLmbf0lHIO78n2yRSy-142">
          <mxGeometry relative="1" as="geometry" />
        </mxCell>
        <mxCell id="0jkLmbf0lHIO78n2yRSy-150" value="No" style="edgeLabel;html=1;align=center;verticalAlign=middle;resizable=0;points=[];" vertex="1" connectable="0" parent="0jkLmbf0lHIO78n2yRSy-148">
          <mxGeometry x="-0.3" y="-1" relative="1" as="geometry">
            <mxPoint as="offset" />
          </mxGeometry>
        </mxCell>
        <mxCell id="0jkLmbf0lHIO78n2yRSy-139" value="" style="rhombus;whiteSpace=wrap;html=1;rounded=0;" vertex="1" parent="1">
          <mxGeometry x="950" y="850" width="90" height="80" as="geometry" />
        </mxCell>
        <mxCell id="0jkLmbf0lHIO78n2yRSy-141" value="total units&amp;gt;=24?" style="text;html=1;align=center;verticalAlign=middle;whiteSpace=wrap;rounded=0;" vertex="1" parent="1">
          <mxGeometry x="965" y="867.5" width="60" height="30" as="geometry" />
        </mxCell>
        <mxCell id="0jkLmbf0lHIO78n2yRSy-155" style="edgeStyle=orthogonalEdgeStyle;rounded=0;orthogonalLoop=1;jettySize=auto;html=1;exitX=0.5;exitY=1;exitDx=0;exitDy=0;entryX=0.5;entryY=0;entryDx=0;entryDy=0;" edge="1" parent="1" source="0jkLmbf0lHIO78n2yRSy-142" target="0jkLmbf0lHIO78n2yRSy-154">
          <mxGeometry relative="1" as="geometry" />
        </mxCell>
        <mxCell id="0jkLmbf0lHIO78n2yRSy-142" value="" style="rounded=0;whiteSpace=wrap;html=1;" vertex="1" parent="1">
          <mxGeometry x="935" y="970" width="120" height="60" as="geometry" />
        </mxCell>
        <mxCell id="0jkLmbf0lHIO78n2yRSy-143" value="Approve pre-registration form. Enrolled." style="text;html=1;align=center;verticalAlign=middle;whiteSpace=wrap;rounded=0;" vertex="1" parent="1">
          <mxGeometry x="952.5" y="992.5" width="85" height="15" as="geometry" />
        </mxCell>
        <mxCell id="0jkLmbf0lHIO78n2yRSy-144" value="" style="rounded=0;whiteSpace=wrap;html=1;" vertex="1" parent="1">
          <mxGeometry x="1110" y="860" width="120" height="60" as="geometry" />
        </mxCell>
        <mxCell id="0jkLmbf0lHIO78n2yRSy-145" value="Display error message and disable submit button" style="text;html=1;align=center;verticalAlign=middle;whiteSpace=wrap;rounded=0;" vertex="1" parent="1">
          <mxGeometry x="1110" y="882.5" width="120" height="15" as="geometry" />
        </mxCell>
        <mxCell id="0jkLmbf0lHIO78n2yRSy-154" value="" style="ellipse;whiteSpace=wrap;html=1;" vertex="1" parent="1">
          <mxGeometry x="935" y="1080" width="120" height="80" as="geometry" />
        </mxCell>
        <mxCell id="0jkLmbf0lHIO78n2yRSy-156" value="END" style="text;html=1;align=center;verticalAlign=middle;whiteSpace=wrap;rounded=0;" vertex="1" parent="1">
          <mxGeometry x="965" y="1105" width="60" height="30" as="geometry" />
        </mxCell>
        <mxCell id="0jkLmbf0lHIO78n2yRSy-157" value="Submit Form" style="text;html=1;align=center;verticalAlign=middle;whiteSpace=wrap;rounded=0;" vertex="1" parent="1">
          <mxGeometry x="10" y="987.5" width="60" height="30" as="geometry" />
        </mxCell>
      </root>
    </mxGraphModel>
  </diagram>
</mxfile>
